<svg width="134" height="106" viewBox="0 0 134 106" fill="none" xmlns="http://www.w3.org/2000/svg">
<g clip-path="url(#clip0_748_2)">
<path fill-rule="evenodd" clip-rule="evenodd" d="M27.6286 0.0126953C20.0387 0.0126953 14.4225 6.65651 14.674 13.8615C14.9153 20.7836 14.6018 29.7488 12.3451 37.0598C10.0804 44.3914 6.25296 49.0374 0 49.6337V56.3664C6.25296 56.964 10.0804 61.6076 12.3448 68.9402C14.6018 76.2513 14.9151 85.2164 14.6737 92.1385C14.4222 99.3425 20.0384 105.987 27.6296 105.987H105.401C112.991 105.987 118.606 99.3435 118.355 92.1385C118.113 85.2164 118.427 76.2513 120.684 68.9402C122.948 61.6076 126.766 56.9621 133.02 56.3664V49.6337C126.767 49.0361 122.949 44.3924 120.684 37.0598C118.427 29.7498 118.113 20.7836 118.355 13.8615C118.606 6.65755 112.991 0.0126953 105.401 0.0126953H27.6275H27.6286ZM90.1829 65.247C90.1829 75.1681 82.7834 81.1849 70.5038 81.1849H49.6005C49.0025 81.1849 48.4291 80.9473 48.0062 80.5245C47.5834 80.1016 47.3459 79.5281 47.3459 78.9301V27.0702C47.3459 26.4722 47.5834 25.8987 48.0062 25.4758C48.4291 25.053 49.0025 24.8154 49.6005 24.8154H70.3848C80.6239 24.8154 87.3437 30.3622 87.3437 38.8783C87.3437 44.8557 82.8231 50.2069 77.0641 51.1443V51.4561C84.9039 52.3162 90.1829 57.7466 90.1829 65.247V65.247ZM68.2245 31.963H56.3057V48.7999H66.3443C74.1047 48.7999 78.3836 45.6747 78.3836 40.0886C78.3828 34.8536 74.704 31.963 68.2245 31.963ZM56.3057 55.4803V74.0349H68.6631C76.743 74.0349 81.0227 70.7925 81.0227 64.699C81.0227 58.6056 76.6229 55.4793 68.1434 55.4793H56.3057V55.4803Z" fill="black"/>
</g>
<defs>
<clipPath id="clip0_748_2">
<rect width="133.02" height="106" fill="white"/>
</clipPath>
</defs>
</svg>
